<svg xmlns="http://www.w3.org/2000/svg" viewBox="0 0 30 30" width="40" height="40"><path fill="#8bb7f0" d="M17.5 15c0 1.382-1.118 2.5-2.5 2.5s-2.5-1.118-2.5-2.5 1.118-2.5 2.5-2.5 2.5 1.118 2.5 2.5z"/><path fill="#4e7ab5" d="M15 18c-1.654 0-3-1.346-3-3s1.346-3 3-3 3 1.346 3 3-1.346 3-3 3zm0-5c-1.103 0-2 .897-2 2s.897 2 2 2 2-.897 2-2-.897-2-2-2z"/><path fill="#8bb7f0" d="M29.5 15c0-2.152-2.095-3.993-5.455-5.166.748-3.603.877-6.337-1.688-7.856a3.513 3.513 0 00-1.812-.477c-1.647 0-3.589 1.002-5.544 2.746-1.956-1.746-3.899-2.749-5.547-2.749-.667 0-1.276.161-1.811.477-1.625.964-2.672 3.117-1.688 7.859C2.595 11.008.5 12.848.5 15s2.095 3.992 5.455 5.166c-.779 3.755-.724 6.428 1.689 7.859a3.513 3.513 0 001.812.477c1.647 0 3.59-1.002 5.545-2.748 1.955 1.744 3.897 2.745 5.544 2.745h.001c.667 0 1.276-.161 1.812-.477 2.39-1.416 2.49-3.994 1.688-7.856C27.405 18.993 29.5 17.152 29.5 15zM21.337 3.699c1.513.896 1.325 2.682.767 5.563a27.028 27.028 0 00-3.231-.56 28.577 28.577 0 00-2.435-3.037c1.618-1.42 3.086-2.163 4.107-2.163.309-.001.567.064.792.197zM21.2 17.474c.157.443.294.874.419 1.298-.416.102-.849.195-1.298.278.135-.227.271-.452.402-.686.163-.293.32-.592.477-.89zm-2.221-.092a33.877 33.877 0 01-1.236 2.018 30.974 30.974 0 01-5.492 0A32.938 32.938 0 019.803 15a32.538 32.538 0 012.449-4.4c.88-.078 1.797-.123 2.749-.123.952 0 1.868.045 2.748.123.418.633.83 1.305 1.232 2.018.452.803.857 1.6 1.216 2.382a33.39 33.39 0 01-1.218 2.382zm-3.978 5.554a25.42 25.42 0 01-1.231-1.439c.406.014.813.026 1.23.026.417 0 .825-.012 1.231-.026a24.73 24.73 0 01-1.23 1.439zm-5.725-4.573c.131.233.267.458.402.685a23.004 23.004 0 01-1.297-.278c.125-.423.262-.854.418-1.297.157.3.313.598.477.89zm-.477-5.837a25.807 25.807 0 01-.418-1.297c.416-.101.848-.194 1.298-.278-.135.227-.271.452-.402.685-.165.293-.321.591-.478.89zm6.202-5.46c.407.439.818.921 1.228 1.438A33.107 33.107 0 0015 8.477c-.416 0-.823.012-1.229.026.411-.517.822-.998 1.23-1.437zm5.721 4.571c-.131-.234-.267-.458-.402-.686.45.083.882.176 1.299.278a25.19 25.19 0 01-.419 1.298 35.891 35.891 0 00-.478-.89zM8.663 3.696a1.51 1.51 0 01.791-.198c1.022 0 2.491.744 4.11 2.165a28.626 28.626 0 00-2.437 3.038 27.225 27.225 0 00-3.231.561c-.781-4.03.18-5.217.767-5.566zM2.5 15c0-1.128 1.501-2.322 3.961-3.202A30 30 0 007.624 15a30.443 30.443 0 00-1.163 3.202C4.001 17.322 2.5 16.128 2.5 15zm6.163 11.304c-1.363-.808-1.355-2.531-.767-5.566a27.01 27.01 0 003.23.56 28.614 28.614 0 002.442 3.044c-2.094 1.839-3.938 2.535-4.905 1.962zm12.674-.003a1.512 1.512 0 01-.792.198c-1.022 0-2.49-.743-4.108-2.162a28.622 28.622 0 002.436-3.038 27.23 27.23 0 003.231-.56c.608 3.142.574 4.768-.767 5.562zm2.201-8.099A30.524 30.524 0 0022.375 15a30.31 30.31 0 001.164-3.202c2.46.88 3.961 2.074 3.961 3.202 0 1.128-1.501 2.322-3.962 3.202z"/><path fill="#4e7ab5" d="M9.455 29.001a3.998 3.998 0 01-2.066-.547c-2.36-1.399-2.775-3.831-2.007-7.965C1.955 19.198 0 17.212 0 15s1.955-4.198 5.382-5.49c-.954-5.133.415-7.021 2.007-7.965 1.944-1.151 4.709-.434 7.612 2.038 2.901-2.47 5.661-3.187 7.61-2.036 2.51 1.486 2.747 3.982 2.007 7.962C28.045 10.802 30 12.789 30 15s-1.955 4.198-5.383 5.49c.789 4.243.334 6.577-2.006 7.962-1.949 1.151-4.709.434-7.611-2.035-1.987 1.692-3.897 2.584-5.545 2.584zM9.454 1.999c-.576 0-1.1.137-1.556.407-1.842 1.092-2.145 3.997-1.454 7.326l.09.429-.414.145C2.866 11.442 1 13.153 1 15s1.866 3.558 5.12 4.694l.414.145-.09.429c-.486 2.342-1.175 5.768 1.454 7.327 1.622.959 4.134.14 6.769-2.213l.333-.298.333.297c2.636 2.351 5.147 3.168 6.769 2.211 2.606-1.544 1.962-4.875 1.453-7.324l-.09-.429.414-.145C27.134 18.558 29 16.847 29 15s-1.866-3.558-5.12-4.694l-.414-.145.09-.429c.455-2.189 1.328-5.677-1.454-7.324-1.621-.959-4.133-.14-6.768 2.212l-.333.297-.333-.297c-1.894-1.69-3.745-2.621-5.214-2.621zm.001 25c-.397 0-.75-.089-1.047-.265-1.57-.931-1.647-2.764-1.004-6.091l.1-.514.509.123a26.61 26.61 0 003.17.549l.223.026.129.184a28.255 28.255 0 002.399 2.99l.35.376-.386.339c-1.675 1.473-3.253 2.283-4.443 2.283zm-1.16-5.656c-.488 2.985-.297 3.985.623 4.531.141.083.321.125.537.125.851 0 2.071-.616 3.395-1.703a29.838 29.838 0 01-2.005-2.527 28.692 28.692 0 01-2.55-.426zm12.25 5.656c-1.181 0-2.757-.812-4.438-2.286l-.386-.339.349-.377a28.415 28.415 0 002.394-2.985l.129-.184.223-.026a26.752 26.752 0 003.171-.55l.509-.123.1.514c.665 3.435.545 5.171-1.003 6.088a1.999 1.999 0 01-1.048.268zm-3.39-2.708c1.672 1.374 3.211 2.005 3.927 1.581.902-.534 1.128-1.434.622-4.528-.795.172-1.649.315-2.551.426a30.125 30.125 0 01-1.998 2.521zm-2.154-.62l-.366-.395a25.684 25.684 0 01-1.256-1.468l-.673-.847 1.081.037c.801.026 1.627.027 2.426 0l1.08-.038-.671.848a24.546 24.546 0 01-1.254 1.469l-.367.394zM15 20.023c-.922 0-1.861-.042-2.794-.125l-.239-.021-.133-.201a33.33 33.33 0 01-2.485-4.466L9.253 15l.096-.208a33.351 33.351 0 012.485-4.466l.133-.201.239-.021a31.297 31.297 0 015.586 0l.24.021.133.201a33.33 33.33 0 012.484 4.466l.096.208-.096.208c-.375.816-.79 1.63-1.234 2.419a34.08 34.08 0 01-1.255 2.048l-.133.201-.24.021a31.05 31.05 0 01-2.787.126zm-2.464-1.101c1.646.134 3.281.134 4.922.001.398-.612.755-1.199 1.086-1.786.393-.698.763-1.416 1.101-2.137a33.1 33.1 0 00-2.182-3.922 30.243 30.243 0 00-4.927 0A32.426 32.426 0 0010.353 15a32.155 32.155 0 002.183 3.922zm-1.871.819l-1.079-.2a23.93 23.93 0 01-1.323-.284l-.51-.125.148-.503c.127-.432.267-.871.426-1.322l.382-1.082.533 1.017c.153.294.309.588.47.876.092.162.186.321.279.479l.674 1.144zm8.662-.001l.642-1.08c.106-.18.213-.359.317-.543.159-.282.31-.569.46-.857l.531-1.014.393 1.06c.161.452.301.892.428 1.323l.148.503-.51.125c-.425.104-.866.199-1.326.284l-1.083.199zm3.883-.889l-.151-.505a29.56 29.56 0 00-1.144-3.149L21.831 15l.084-.196a30.093 30.093 0 001.146-3.149l.15-.504.496.177C26.436 12.303 28 13.641 28 15c0 1.358-1.565 2.697-4.294 3.673l-.496.178zM22.918 15c.357.855.673 1.709.941 2.547C26.166 16.634 27 15.619 27 15s-.834-1.634-3.141-2.547c-.27.846-.586 1.7-.941 2.547zM6.789 18.85l-.496-.178C3.564 17.697 2 16.359 2 15s1.564-2.697 4.293-3.672l.496-.178.151.505c.31 1.038.694 2.097 1.144 3.148l.084.197-.084.196a29.81 29.81 0 00-1.144 3.148l-.151.506zm-.649-6.397C3.834 13.366 3 14.381 3 15s.834 1.634 3.14 2.547c.269-.844.585-1.697.941-2.547a30.913 30.913 0 01-.941-2.547zm2.569 1.321l-.382-1.082c-.159-.451-.299-.89-.426-1.322l-.148-.503.51-.125c.425-.104.865-.198 1.325-.284l1.082-.201-.654 1.105a21.454 21.454 0 00-.774 1.394l-.533 1.018zm12.578-.002l-.531-1.014a31.47 31.47 0 00-.47-.876c-.104-.184-.211-.363-.317-.543l-.642-1.08 1.083.2c.46.085.901.18 1.326.284l.51.125-.148.503a24.32 24.32 0 01-.428 1.323l-.383 1.078zM7.504 9.871l-.1-.514c-.835-4.322.208-5.619 1.004-6.091 1.208-.713 3.235.047 5.485 2.022l.386.339-.35.377a28.284 28.284 0 00-2.394 2.985l-.129.184-.223.026c-1.144.132-2.21.317-3.172.549l-.507.123zm1.95-5.872c-.218 0-.389.041-.536.128-.173.102-1.277.535-.623 4.53a28.44 28.44 0 012.552-.426 29.491 29.491 0 011.999-2.521c-1.316-1.079-2.562-1.711-3.392-1.711zm13.041 5.872l-.509-.123a26.752 26.752 0 00-3.171-.55l-.223-.026-.129-.184a28.158 28.158 0 00-2.393-2.984l-.351-.377.387-.339c2.251-1.975 4.279-2.732 5.484-2.02 1.721 1.019 1.618 2.915 1.003 6.088l-.098.515zm-3.342-1.64c.901.111 1.756.254 2.551.426.464-2.827.445-3.897-.622-4.528-.717-.424-2.254.207-3.927 1.582a29.472 29.472 0 011.998 2.52zm-6.447.808l.674-.848c.429-.538.851-1.031 1.255-1.466l.367-.396.366.396c.414.448.835.941 1.252 1.466l.673.847-1.081-.037a37.675 37.675 0 00-2.424 0l-1.082.038z"/></svg>